HIERARCHY
ROOT Hips
{
 OFFSET 0.000000 0.000000 0.000000
 CHANNELS 6 Xposition Yposition Zposition Yrotation Xrotation Zrotation
 JOINT Chest
 {
  OFFSET 0.000000 9.585900 0.002600
  CHANNELS 3 Yrotation Xrotation Zrotation
  JOINT Chest2
  {
   OFFSET 0.000000 9.601200 -0.005300
   CHANNELS 3 Yrotation Xrotation Zrotation
   JOINT Chest3
   {
    OFFSET 0.000000 9.561800 0.000000
    CHANNELS 3 Yrotation Xrotation Zrotation
    JOINT Chest4
    {
     OFFSET 0.000000 9.552100 0.000000
     CHANNELS 3 Yrotation Xrotation Zrotation
     JOINT Neck
     {
      OFFSET 0.000000 14.453000 0.000000
      CHANNELS 3 Yrotation Xrotation Zrotation
      JOINT Head
      {
       OFFSET 0.000000 8.936500 -0.011300
       CHANNELS 3 Yrotation Xrotation Zrotation
       End Site
       {
        OFFSET 0.000000 17.073600 -0.006000
       }
      }
     }
     JOINT RightCollar
     {
      OFFSET -2.921100 9.558500 0.000000
      CHANNELS 3 Yrotation Xrotation Zrotation
      JOINT RightShoulder
      {
       OFFSET -13.519700 0.000000 0.000000
       CHANNELS 3 Yrotation Xrotation Zrotation
       JOINT RightElbow
       {
        OFFSET 0.000000 -29.696600 0.000000
        CHANNELS 3 Yrotation Xrotation Zrotation
        JOINT RightWrist
        {
         OFFSET 0.000000 -24.004700 0.000000
         CHANNELS 3 Yrotation Xrotation Zrotation
         End Site
         {
          OFFSET 0.000000 -17.728500 0.000000
         }
        }
       }
      }
     }
     JOINT LeftCollar
     {
      OFFSET 2.921100 9.558500 0.000000
      CHANNELS 3 Yrotation Xrotation Zrotation
      JOINT LeftShoulder
      {
       OFFSET 13.519700 0.000000 0.000000
       CHANNELS 3 Yrotation Xrotation Zrotation
       JOINT LeftElbow
       {
        OFFSET 0.000000 -29.696600 0.000000
        CHANNELS 3 Yrotation Xrotation Zrotation
        JOINT LeftWrist
        {
         OFFSET 0.000000 -24.004700 0.000000
         CHANNELS 3 Yrotation Xrotation Zrotation
         End Site
         {
          OFFSET 0.000000 -17.728500 0.000000
         }
        }
       }
      }
     }
    }
   }
  }
 }
 JOINT RightHip
 {
  OFFSET -7.771700 -0.012900 -0.001300
  CHANNELS 3 Yrotation Xrotation Zrotation
  JOINT RightKnee
  {
   OFFSET 0.000000 -40.869800 0.001200
   CHANNELS 3 Yrotation Xrotation Zrotation
   JOINT RightAnkle
   {
    OFFSET 0.000000 -39.717900 0.002100
    CHANNELS 3 Yrotation Xrotation Zrotation
    JOINT RightToe
    {
     OFFSET 0.000000 -4.965400 11.033500
     CHANNELS 3 Yrotation Xrotation Zrotation
     End Site
     {
      OFFSET 0.000000 -1.423100 5.872300
     }
    }
   }
  }
 }
 JOINT LeftHip
 {
  OFFSET 7.771700 -0.012900 -0.001300
  CHANNELS 3 Yrotation Xrotation Zrotation
  JOINT LeftKnee
  {
   OFFSET 0.000000 -40.869800 0.001200
   CHANNELS 3 Yrotation Xrotation Zrotation
   JOINT LeftAnkle
   {
    OFFSET 0.000000 -39.717900 0.002100
    CHANNELS 3 Yrotation Xrotation Zrotation
    JOINT LeftToe
    {
     OFFSET 0.000000 -4.965400 11.033500
     CHANNELS 3 Yrotation Xrotation Zrotation
     End Site
     {
      OFFSET 0.000000 -1.423100 5.872300
     }
    }
   }
  }
 }
}
MOTION
Frames: 5
Frame Time: 0.008333
-2.591843 52.526973 35.019229 170.591455 -41.336640 -1.574792 3.758093 21.909941 2.252467 0.402277 3.042215 0.397554 0.632031 4.969487 0.644515 2.838927 18.519849 2.823356 1.783664 19.036253 0.027342 3.118902 -0.256258 -0.544335 -5.552408 -2.031322 -3.679264 -3.516997 -1.925127 6.509855 170.076266 -82.668031 -158.845344 -0.280643 -12.122381 -9.747843 -3.575187 0.551986 0.469022 9.598242 -0.600444 1.121136 168.639077 -73.033245 179.578181 -4.745378 -13.950940 15.245953 -3.140719 -40.380756 2.604412 -114.843840 85.861869 -110.874239 -0.910721 -8.689900 -2.615637 0.554279 -0.935693 0.206769 -0.033793 -36.560015 5.727982 68.694451 83.096050 58.480140 -4.969805 -11.552686 9.217585 0.335703 1.361564 0.201416
-2.586741 52.517298 35.030792 170.578146 -41.340706 -1.577713 3.733214 21.935514 2.237173 0.400089 3.051186 0.395482 0.621024 4.992865 0.636374 2.863879 18.500732 2.822862 1.765739 19.063919 0.004942 3.161057 -0.294715 -0.560436 -5.576651 -2.065844 -3.706527 -3.586898 -1.912512 6.505900 170.149537 -82.648039 -158.916097 -0.273260 -12.144794 -9.769527 -3.638325 0.561631 0.476335 9.648301 -0.547698 1.196496 172.945306 -72.095449 175.606508 -5.127865 -14.135611 15.738108 -3.144878 -40.380716 2.603689 -114.916923 85.896248 -110.913485 -0.930455 -8.666437 -2.650864 0.567330 -0.947150 0.214816 0.035008 -36.565544 5.731818 68.583655 83.106740 58.401855 -4.990641 -11.532358 9.229934 0.346465 1.345118 0.196747
-2.581806 52.507729 35.041322 170.560532 -41.346366 -1.573532 3.717835 21.962351 2.220766 0.397811 3.059895 0.393368 0.612348 5.004019 0.629637 2.880436 18.493874 2.822056 1.690423 19.135390 -0.037989 3.254166 -0.380223 -0.573749 -5.601848 -2.100634 -3.736726 -3.652116 -1.893167 6.489337 170.279774 -82.636909 -159.036422 -0.255604 -12.148626 -9.802007 -3.701158 0.572927 0.483151 9.722215 -0.495212 1.280388 177.238650 -70.971355 171.668343 -5.538845 -14.365814 16.237528 -3.144684 -40.378312 2.601111 -114.939083 85.927448 -110.908273 -0.945288 -8.647920 -2.674981 0.579198 -0.952723 0.215528 0.084240 -36.563930 5.729575 68.526611 83.100416 58.361581 -4.983065 -11.530454 9.240410 0.324608 1.345379 0.191437
-2.573760 52.497691 35.052318 170.538734 -41.345010 -1.585253 3.707811 21.981723 2.219780 0.395433 3.066980 0.391067 0.617299 5.005737 0.627793 2.796862 18.569924 2.774867 1.758348 19.080459 -0.040353 3.264411 -0.369100 -0.623969 -5.510055 -2.200808 -3.726533 -3.670294 -1.883698 6.483602 170.058945 -82.634017 -158.866343 -0.232944 -12.141334 -9.839150 -3.626889 0.495476 0.510226 9.786015 -0.423537 1.384679 -178.660776 -69.655858 167.930259 -5.957238 -14.678625 16.744820 -3.153705 -40.377936 2.615449 -114.930123 85.966761 -110.842710 -1.000744 -8.636089 -2.745035 0.632542 -0.952864 0.241558 0.124258 -36.568527 5.749374 68.505307 83.086882 58.360729 -4.978534 -11.541373 9.250244 0.298422 1.356353 0.183339
-2.568658 52.488186 35.061452 170.516175 -41.344460 -1.578877 3.655000 22.024146 2.166220 0.380679 3.087846 0.382310 0.695135 4.953599 0.660278 2.717374 18.638604 2.733484 1.792547 19.049393 -0.044649 3.294766 -0.399417 -0.643426 -5.448699 -2.275825 -3.726148 -3.686519 -1.873536 6.476825 169.875639 -82.646435 -158.718036 -0.210242 -12.128565 -9.873478 -3.646794 0.467451 0.529990 9.946222 -0.376519 1.508816 -174.920013 -68.157499 164.559914 -6.373472 -15.122059 17.273906 -3.171842 -40.380107 2.619521 -114.939347 85.992110 -110.825785 -1.014956 -8.624579 -2.798477 0.657289 -0.955787 0.258500 0.156416 -36.570024 5.756659 68.533244 83.066147 58.391498 -4.983947 -11.544892 9.265567 0.276330 1.357232 0.166390
